<?xml version="1.0" encoding="UTF-8" standalone="no"?>
<!DOCTYPE svg PUBLIC "-//W3C//DTD SVG 1.1//EN"
 "http://www.w3.org/Graphics/SVG/1.1/DTD/svg11.dtd">
<!-- Generated by graphviz version 5.0.0 (20220707.1540)
 -->
<!-- Title: dependencies Pages: 1 -->
<svg width="356pt" height="174pt"
 viewBox="0.00 0.00 356.00 173.80" xmlns="http://www.w3.org/2000/svg" xmlns:xlink="http://www.w3.org/1999/xlink">
<g id="graph0" class="graph" transform="scale(1 1) rotate(0) translate(4 169.8)">
<title>dependencies</title>
<polygon fill="white" stroke="transparent" points="-4,4 -4,-169.8 352,-169.8 352,4 -4,4"/>
<text text-anchor="middle" x="174" y="-8.2" font-family="sans-serif" font-size="14.00">dependencies</text>
<g id="clust1" class="cluster">
<title>cluster_PaymentModule</title>
<polygon fill="none" stroke="black" stroke-dasharray="1,5" points="8,-32.8 8,-157.8 340,-157.8 340,-32.8 8,-32.8"/>
</g>
<g id="clust3" class="cluster">
<title>cluster_PaymentModule_imports</title>
<polygon fill="none" stroke="black" points="188,-40.8 188,-92.8 332,-92.8 332,-40.8 188,-40.8"/>
</g>
<g id="clust6" class="cluster">
<title>cluster_PaymentModule_providers</title>
<polygon fill="none" stroke="black" points="16,-40.8 16,-92.8 180,-92.8 180,-40.8 16,-40.8"/>
</g>
<!-- NotificationModule -->
<g id="node1" class="node">
<title>NotificationModule</title>
<polygon fill="#8dd3c7" stroke="black" points="323.7,-84.8 320.7,-88.8 299.7,-88.8 296.7,-84.8 196.3,-84.8 196.3,-48.8 323.7,-48.8 323.7,-84.8"/>
<text text-anchor="middle" x="260" y="-62.6" font-family="Times,serif" font-size="14.00">NotificationModule</text>
</g>
<!-- PaymentModule -->
<g id="node2" class="node">
<title>PaymentModule</title>
<polygon fill="#8dd3c7" stroke="black" points="233.05,-149.8 230.05,-153.8 209.05,-153.8 206.05,-149.8 124.95,-149.8 124.95,-113.8 233.05,-113.8 233.05,-149.8"/>
<text text-anchor="middle" x="179" y="-127.6" font-family="Times,serif" font-size="14.00">PaymentModule</text>
</g>
<!-- NotificationModule&#45;&gt;PaymentModule -->
<g id="edge1" class="edge">
<title>NotificationModule&#45;&gt;PaymentModule</title>
<path fill="none" stroke="black" d="M214.84,-84.91C214.84,-84.91 214.84,-103.79 214.84,-103.79"/>
<polygon fill="black" stroke="black" points="211.34,-103.79 214.84,-113.79 218.34,-103.79 211.34,-103.79"/>
</g>
<!-- PaymentService -->
<g id="node3" class="node">
<title>PaymentService</title>
<ellipse fill="#fdb462" stroke="black" cx="98" cy="-66.8" rx="73.58" ry="18"/>
<text text-anchor="middle" x="98" y="-62.6" font-family="Times,serif" font-size="14.00">PaymentService</text>
</g>
<!-- PaymentService&#45;&gt;PaymentModule -->
<g id="edge2" class="edge">
<title>PaymentService&#45;&gt;PaymentModule</title>
<path fill="none" stroke="black" d="M148.26,-80.27C148.26,-80.27 148.26,-103.66 148.26,-103.66"/>
<polygon fill="black" stroke="black" points="144.76,-103.66 148.26,-113.66 151.76,-103.66 144.76,-103.66"/>
</g>
</g>
</svg>
