<?xml version="1.0" encoding="UTF-8" standalone="no"?>
<!DOCTYPE svg PUBLIC "-//W3C//DTD SVG 1.1//EN"
 "http://www.w3.org/Graphics/SVG/1.1/DTD/svg11.dtd">
<!-- Generated by graphviz version 5.0.0 (20220707.1540)
 -->
<!-- Title: dependencies Pages: 1 -->
<svg width="1720pt" height="174pt"
 viewBox="0.00 0.00 1720.00 173.80" xmlns="http://www.w3.org/2000/svg" xmlns:xlink="http://www.w3.org/1999/xlink">
<g id="graph0" class="graph" transform="scale(1 1) rotate(0) translate(4 169.8)">
<title>dependencies</title>
<polygon fill="white" stroke="transparent" points="-4,4 -4,-169.8 1716,-169.8 1716,4 -4,4"/>
<text text-anchor="middle" x="856" y="-8.2" font-family="sans-serif" font-size="14.00">dependencies</text>
<g id="clust1" class="cluster">
<title>cluster_AppModule</title>
<polygon fill="none" stroke="black" stroke-dasharray="1,5" points="8,-32.8 8,-157.8 1704,-157.8 1704,-32.8 8,-32.8"/>
</g>
<g id="clust6" class="cluster">
<title>cluster_AppModule_providers</title>
<polygon fill="none" stroke="black" points="1418,-40.8 1418,-92.8 1696,-92.8 1696,-40.8 1418,-40.8"/>
</g>
<g id="clust3" class="cluster">
<title>cluster_AppModule_imports</title>
<polygon fill="none" stroke="black" points="16,-40.8 16,-92.8 1410,-92.8 1410,-40.8 16,-40.8"/>
</g>
<!-- AnalyticsModule -->
<g id="node1" class="node">
<title>AnalyticsModule</title>
<polygon fill="#8dd3c7" stroke="black" points="1401.71,-84.8 1398.71,-88.8 1377.71,-88.8 1374.71,-84.8 1288.29,-84.8 1288.29,-48.8 1401.71,-48.8 1401.71,-84.8"/>
<text text-anchor="middle" x="1345" y="-62.6" font-family="Times,serif" font-size="14.00">AnalyticsModule</text>
</g>
<!-- AppModule -->
<g id="node13" class="node">
<title>AppModule</title>
<polygon fill="#8dd3c7" stroke="black" points="873.66,-149.8 870.66,-153.8 849.66,-153.8 846.66,-149.8 790.34,-149.8 790.34,-113.8 873.66,-113.8 873.66,-149.8"/>
<text text-anchor="middle" x="832" y="-127.6" font-family="Times,serif" font-size="14.00">AppModule</text>
</g>
<!-- AnalyticsModule&#45;&gt;AppModule -->
<g id="edge1" class="edge">
<title>AnalyticsModule&#45;&gt;AppModule</title>
<path fill="none" stroke="black" d="M1345,-85.02C1345,-105.17 1345,-134.8 1345,-134.8 1345,-134.8 883.98,-134.8 883.98,-134.8"/>
<polygon fill="black" stroke="black" points="883.98,-131.3 873.98,-134.8 883.98,-138.3 883.98,-131.3"/>
</g>
<!-- AppealsModule -->
<g id="node2" class="node">
<title>AppealsModule</title>
<polygon fill="#8dd3c7" stroke="black" points="1270.93,-84.8 1267.93,-88.8 1246.93,-88.8 1243.93,-84.8 1165.07,-84.8 1165.07,-48.8 1270.93,-48.8 1270.93,-84.8"/>
<text text-anchor="middle" x="1218" y="-62.6" font-family="Times,serif" font-size="14.00">AppealsModule</text>
</g>
<!-- AppealsModule&#45;&gt;AppModule -->
<g id="edge2" class="edge">
<title>AppealsModule&#45;&gt;AppModule</title>
<path fill="none" stroke="black" d="M1218,-85.02C1218,-103.63 1218,-129.8 1218,-129.8 1218,-129.8 883.68,-129.8 883.68,-129.8"/>
<polygon fill="black" stroke="black" points="883.68,-126.3 873.68,-129.8 883.68,-133.3 883.68,-126.3"/>
</g>
<!-- AuthModule -->
<g id="node3" class="node">
<title>AuthModule</title>
<polygon fill="#8dd3c7" stroke="black" points="1147.55,-84.8 1144.55,-88.8 1123.55,-88.8 1120.55,-84.8 1060.45,-84.8 1060.45,-48.8 1147.55,-48.8 1147.55,-84.8"/>
<text text-anchor="middle" x="1104" y="-62.6" font-family="Times,serif" font-size="14.00">AuthModule</text>
</g>
<!-- AuthModule&#45;&gt;AppModule -->
<g id="edge3" class="edge">
<title>AuthModule&#45;&gt;AppModule</title>
<path fill="none" stroke="black" d="M1104,-84.83C1104,-101.86 1104,-124.8 1104,-124.8 1104,-124.8 883.9,-124.8 883.9,-124.8"/>
<polygon fill="black" stroke="black" points="883.9,-121.3 873.9,-124.8 883.9,-128.3 883.9,-121.3"/>
</g>
<!-- BlockModule -->
<g id="node4" class="node">
<title>BlockModule</title>
<polygon fill="#8dd3c7" stroke="black" points="1042.49,-84.8 1039.49,-88.8 1018.49,-88.8 1015.49,-84.8 949.51,-84.8 949.51,-48.8 1042.49,-48.8 1042.49,-84.8"/>
<text text-anchor="middle" x="996" y="-62.6" font-family="Times,serif" font-size="14.00">BlockModule</text>
</g>
<!-- BlockModule&#45;&gt;AppModule -->
<g id="edge4" class="edge">
<title>BlockModule&#45;&gt;AppModule</title>
<path fill="none" stroke="black" d="M996,-85.04C996,-100.37 996,-119.8 996,-119.8 996,-119.8 883.81,-119.8 883.81,-119.8"/>
<polygon fill="black" stroke="black" points="883.81,-116.3 873.81,-119.8 883.81,-123.3 883.81,-116.3"/>
</g>
<!-- FeedModule -->
<g id="node5" class="node">
<title>FeedModule</title>
<polygon fill="#8dd3c7" stroke="black" points="931.27,-84.8 928.27,-88.8 907.27,-88.8 904.27,-84.8 844.73,-84.8 844.73,-48.8 931.27,-48.8 931.27,-84.8"/>
<text text-anchor="middle" x="888" y="-62.6" font-family="Times,serif" font-size="14.00">FeedModule</text>
</g>
<!-- FeedModule&#45;&gt;AppModule -->
<g id="edge5" class="edge">
<title>FeedModule&#45;&gt;AppModule</title>
<path fill="none" stroke="black" d="M859.22,-84.91C859.22,-84.91 859.22,-103.79 859.22,-103.79"/>
<polygon fill="black" stroke="black" points="855.72,-103.79 859.22,-113.79 862.72,-103.79 855.72,-103.79"/>
</g>
<!-- FollowModule -->
<g id="node6" class="node">
<title>FollowModule</title>
<polygon fill="#8dd3c7" stroke="black" points="826.73,-84.8 823.73,-88.8 802.73,-88.8 799.73,-84.8 727.27,-84.8 727.27,-48.8 826.73,-48.8 826.73,-84.8"/>
<text text-anchor="middle" x="777" y="-62.6" font-family="Times,serif" font-size="14.00">FollowModule</text>
</g>
<!-- FollowModule&#45;&gt;AppModule -->
<g id="edge6" class="edge">
<title>FollowModule&#45;&gt;AppModule</title>
<path fill="none" stroke="black" d="M808.39,-84.91C808.39,-84.91 808.39,-103.79 808.39,-103.79"/>
<polygon fill="black" stroke="black" points="804.89,-103.79 808.39,-113.79 811.89,-103.79 804.89,-103.79"/>
</g>
<!-- NotificationModule -->
<g id="node7" class="node">
<title>NotificationModule</title>
<polygon fill="#8dd3c7" stroke="black" points="709.7,-84.8 706.7,-88.8 685.7,-88.8 682.7,-84.8 582.3,-84.8 582.3,-48.8 709.7,-48.8 709.7,-84.8"/>
<text text-anchor="middle" x="646" y="-62.6" font-family="Times,serif" font-size="14.00">NotificationModule</text>
</g>
<!-- NotificationModule&#45;&gt;AppModule -->
<g id="edge7" class="edge">
<title>NotificationModule&#45;&gt;AppModule</title>
<path fill="none" stroke="black" d="M646,-85.04C646,-100.37 646,-119.8 646,-119.8 646,-119.8 780.26,-119.8 780.26,-119.8"/>
<polygon fill="black" stroke="black" points="780.26,-123.3 790.26,-119.8 780.26,-116.3 780.26,-123.3"/>
</g>
<!-- PaymentModule -->
<g id="node8" class="node">
<title>PaymentModule</title>
<polygon fill="#8dd3c7" stroke="black" points="564.05,-84.8 561.05,-88.8 540.05,-88.8 537.05,-84.8 455.95,-84.8 455.95,-48.8 564.05,-48.8 564.05,-84.8"/>
<text text-anchor="middle" x="510" y="-62.6" font-family="Times,serif" font-size="14.00">PaymentModule</text>
</g>
<!-- PaymentModule&#45;&gt;AppModule -->
<g id="edge8" class="edge">
<title>PaymentModule&#45;&gt;AppModule</title>
<path fill="none" stroke="black" d="M510,-84.83C510,-101.86 510,-124.8 510,-124.8 510,-124.8 780.23,-124.8 780.23,-124.8"/>
<polygon fill="black" stroke="black" points="780.23,-128.3 790.23,-124.8 780.23,-121.3 780.23,-128.3"/>
</g>
<!-- PostModule -->
<g id="node9" class="node">
<title>PostModule</title>
<polygon fill="#8dd3c7" stroke="black" points="437.68,-84.8 434.68,-88.8 413.68,-88.8 410.68,-84.8 354.32,-84.8 354.32,-48.8 437.68,-48.8 437.68,-84.8"/>
<text text-anchor="middle" x="396" y="-62.6" font-family="Times,serif" font-size="14.00">PostModule</text>
</g>
<!-- PostModule&#45;&gt;AppModule -->
<g id="edge9" class="edge">
<title>PostModule&#45;&gt;AppModule</title>
<path fill="none" stroke="black" d="M396,-85.02C396,-103.63 396,-129.8 396,-129.8 396,-129.8 780.19,-129.8 780.19,-129.8"/>
<polygon fill="black" stroke="black" points="780.19,-133.3 790.19,-129.8 780.19,-126.3 780.19,-133.3"/>
</g>
<!-- ReportModule -->
<g id="node10" class="node">
<title>ReportModule</title>
<polygon fill="#8dd3c7" stroke="black" points="335.66,-84.8 332.66,-88.8 311.66,-88.8 308.66,-84.8 238.34,-84.8 238.34,-48.8 335.66,-48.8 335.66,-84.8"/>
<text text-anchor="middle" x="287" y="-62.6" font-family="Times,serif" font-size="14.00">ReportModule</text>
</g>
<!-- ReportModule&#45;&gt;AppModule -->
<g id="edge10" class="edge">
<title>ReportModule&#45;&gt;AppModule</title>
<path fill="none" stroke="black" d="M287,-85.02C287,-105.17 287,-134.8 287,-134.8 287,-134.8 780.14,-134.8 780.14,-134.8"/>
<polygon fill="black" stroke="black" points="780.14,-138.3 790.14,-134.8 780.14,-131.3 780.14,-138.3"/>
</g>
<!-- TasksModule -->
<g id="node11" class="node">
<title>TasksModule</title>
<polygon fill="#8dd3c7" stroke="black" points="220.21,-84.8 217.21,-88.8 196.21,-88.8 193.21,-84.8 127.79,-84.8 127.79,-48.8 220.21,-48.8 220.21,-84.8"/>
<text text-anchor="middle" x="174" y="-62.6" font-family="Times,serif" font-size="14.00">TasksModule</text>
</g>
<!-- TasksModule&#45;&gt;AppModule -->
<g id="edge11" class="edge">
<title>TasksModule&#45;&gt;AppModule</title>
<path fill="none" stroke="black" d="M174,-84.84C174,-106.46 174,-139.8 174,-139.8 174,-139.8 780.09,-139.8 780.09,-139.8"/>
<polygon fill="black" stroke="black" points="780.09,-143.3 790.09,-139.8 780.09,-136.3 780.09,-143.3"/>
</g>
<!-- UserModule -->
<g id="node12" class="node">
<title>UserModule</title>
<polygon fill="#8dd3c7" stroke="black" points="109.99,-84.8 106.99,-88.8 85.99,-88.8 82.99,-84.8 24.01,-84.8 24.01,-48.8 109.99,-48.8 109.99,-84.8"/>
<text text-anchor="middle" x="67" y="-62.6" font-family="Times,serif" font-size="14.00">UserModule</text>
</g>
<!-- UserModule&#45;&gt;AppModule -->
<g id="edge12" class="edge">
<title>UserModule&#45;&gt;AppModule</title>
<path fill="none" stroke="black" d="M67,-84.89C67,-107.93 67,-144.8 67,-144.8 67,-144.8 780.33,-144.8 780.33,-144.8"/>
<polygon fill="black" stroke="black" points="780.33,-148.3 790.33,-144.8 780.33,-141.3 780.33,-148.3"/>
</g>
<!-- AppService -->
<g id="node14" class="node">
<title>AppService</title>
<ellipse fill="#fdb462" stroke="black" cx="1631" cy="-66.8" rx="56.75" ry="18"/>
<text text-anchor="middle" x="1631" y="-62.6" font-family="Times,serif" font-size="14.00">AppService</text>
</g>
<!-- AppService&#45;&gt;AppModule -->
<g id="edge13" class="edge">
<title>AppService&#45;&gt;AppModule</title>
<path fill="none" stroke="black" d="M1631,-84.89C1631,-107.93 1631,-144.8 1631,-144.8 1631,-144.8 883.83,-144.8 883.83,-144.8"/>
<polygon fill="black" stroke="black" points="883.83,-141.3 873.83,-144.8 883.83,-148.3 883.83,-141.3"/>
</g>
<!-- LocalStrategy -->
<g id="node15" class="node">
<title>LocalStrategy</title>
<ellipse fill="#fdb462" stroke="black" cx="1491" cy="-66.8" rx="65.4" ry="18"/>
<text text-anchor="middle" x="1491" y="-62.6" font-family="Times,serif" font-size="14.00">LocalStrategy</text>
</g>
<!-- LocalStrategy&#45;&gt;AppModule -->
<g id="edge14" class="edge">
<title>LocalStrategy&#45;&gt;AppModule</title>
<path fill="none" stroke="black" d="M1491,-84.84C1491,-106.46 1491,-139.8 1491,-139.8 1491,-139.8 883.72,-139.8 883.72,-139.8"/>
<polygon fill="black" stroke="black" points="883.72,-136.3 873.72,-139.8 883.72,-143.3 883.72,-136.3"/>
</g>
</g>
</svg>
