<?xml version="1.0" encoding="UTF-8" standalone="no"?>
<!DOCTYPE svg PUBLIC "-//W3C//DTD SVG 1.1//EN"
 "http://www.w3.org/Graphics/SVG/1.1/DTD/svg11.dtd">
<!-- Generated by graphviz version 5.0.0 (20220707.1540)
 -->
<!-- Title: dependencies Pages: 1 -->
<svg width="1955pt" height="174pt"
 viewBox="0.00 0.00 1955.00 173.80" xmlns="http://www.w3.org/2000/svg" xmlns:xlink="http://www.w3.org/1999/xlink">
<g id="graph0" class="graph" transform="scale(1 1) rotate(0) translate(4 169.8)">
<title>dependencies</title>
<polygon fill="white" stroke="transparent" points="-4,4 -4,-169.8 1951,-169.8 1951,4 -4,4"/>
<text text-anchor="middle" x="973.5" y="-8.2" font-family="sans-serif" font-size="14.00">dependencies</text>
<g id="clust1" class="cluster">
<title>cluster_AppModule</title>
<polygon fill="none" stroke="black" stroke-dasharray="1,5" points="8,-32.8 8,-157.8 1939,-157.8 1939,-32.8 8,-32.8"/>
</g>
<g id="clust6" class="cluster">
<title>cluster_AppModule_providers</title>
<polygon fill="none" stroke="black" points="1653,-40.8 1653,-92.8 1931,-92.8 1931,-40.8 1653,-40.8"/>
</g>
<g id="clust3" class="cluster">
<title>cluster_AppModule_imports</title>
<polygon fill="none" stroke="black" points="16,-40.8 16,-92.8 1645,-92.8 1645,-40.8 16,-40.8"/>
</g>
<!-- AnalyticsModule -->
<g id="node1" class="node">
<title>AnalyticsModule</title>
<polygon fill="#8dd3c7" stroke="black" points="1636.71,-84.8 1633.71,-88.8 1612.71,-88.8 1609.71,-84.8 1523.29,-84.8 1523.29,-48.8 1636.71,-48.8 1636.71,-84.8"/>
<text text-anchor="middle" x="1580" y="-62.6" font-family="Times,serif" font-size="14.00">AnalyticsModule</text>
</g>
<!-- AppModule -->
<g id="node15" class="node">
<title>AppModule</title>
<polygon fill="#8dd3c7" stroke="black" points="998.66,-149.8 995.66,-153.8 974.66,-153.8 971.66,-149.8 915.34,-149.8 915.34,-113.8 998.66,-113.8 998.66,-149.8"/>
<text text-anchor="middle" x="957" y="-127.6" font-family="Times,serif" font-size="14.00">AppModule</text>
</g>
<!-- AnalyticsModule&#45;&gt;AppModule -->
<g id="edge1" class="edge">
<title>AnalyticsModule&#45;&gt;AppModule</title>
<path fill="none" stroke="black" d="M1580,-84.83C1580,-105.57 1580,-136.8 1580,-136.8 1580,-136.8 1008.84,-136.8 1008.84,-136.8"/>
<polygon fill="black" stroke="black" points="1008.84,-133.3 998.84,-136.8 1008.84,-140.3 1008.84,-133.3"/>
</g>
<!-- AppealsModule -->
<g id="node2" class="node">
<title>AppealsModule</title>
<polygon fill="#8dd3c7" stroke="black" points="1505.93,-84.8 1502.93,-88.8 1481.93,-88.8 1478.93,-84.8 1400.07,-84.8 1400.07,-48.8 1505.93,-48.8 1505.93,-84.8"/>
<text text-anchor="middle" x="1453" y="-62.6" font-family="Times,serif" font-size="14.00">AppealsModule</text>
</g>
<!-- AppealsModule&#45;&gt;AppModule -->
<g id="edge2" class="edge">
<title>AppealsModule&#45;&gt;AppModule</title>
<path fill="none" stroke="black" d="M1453,-84.91C1453,-104.14 1453,-131.8 1453,-131.8 1453,-131.8 1008.86,-131.8 1008.86,-131.8"/>
<polygon fill="black" stroke="black" points="1008.86,-128.3 998.86,-131.8 1008.86,-135.3 1008.86,-128.3"/>
</g>
<!-- AuthModule -->
<g id="node3" class="node">
<title>AuthModule</title>
<polygon fill="#8dd3c7" stroke="black" points="1382.55,-84.8 1379.55,-88.8 1358.55,-88.8 1355.55,-84.8 1295.45,-84.8 1295.45,-48.8 1382.55,-48.8 1382.55,-84.8"/>
<text text-anchor="middle" x="1339" y="-62.6" font-family="Times,serif" font-size="14.00">AuthModule</text>
</g>
<!-- AuthModule&#45;&gt;AppModule -->
<g id="edge3" class="edge">
<title>AuthModule&#45;&gt;AppModule</title>
<path fill="none" stroke="black" d="M1339,-85.1C1339,-103.07 1339,-127.8 1339,-127.8 1339,-127.8 1008.97,-127.8 1008.97,-127.8"/>
<polygon fill="black" stroke="black" points="1008.97,-124.3 998.97,-127.8 1008.97,-131.3 1008.97,-124.3"/>
</g>
<!-- BlockModule -->
<g id="node4" class="node">
<title>BlockModule</title>
<polygon fill="#8dd3c7" stroke="black" points="1277.49,-84.8 1274.49,-88.8 1253.49,-88.8 1250.49,-84.8 1184.51,-84.8 1184.51,-48.8 1277.49,-48.8 1277.49,-84.8"/>
<text text-anchor="middle" x="1231" y="-62.6" font-family="Times,serif" font-size="14.00">BlockModule</text>
</g>
<!-- BlockModule&#45;&gt;AppModule -->
<g id="edge4" class="edge">
<title>BlockModule&#45;&gt;AppModule</title>
<path fill="none" stroke="black" d="M1231,-84.83C1231,-101.2 1231,-122.8 1231,-122.8 1231,-122.8 1008.91,-122.8 1008.91,-122.8"/>
<polygon fill="black" stroke="black" points="1008.91,-119.3 998.91,-122.8 1008.91,-126.3 1008.91,-119.3"/>
</g>
<!-- EventModule -->
<g id="node5" class="node">
<title>EventModule</title>
<polygon fill="#8dd3c7" stroke="black" points="1166.21,-84.8 1163.21,-88.8 1142.21,-88.8 1139.21,-84.8 1073.79,-84.8 1073.79,-48.8 1166.21,-48.8 1166.21,-84.8"/>
<text text-anchor="middle" x="1120" y="-62.6" font-family="Times,serif" font-size="14.00">EventModule</text>
</g>
<!-- EventModule&#45;&gt;AppModule -->
<g id="edge5" class="edge">
<title>EventModule&#45;&gt;AppModule</title>
<path fill="none" stroke="black" d="M1120,-84.99C1120,-99.98 1120,-118.8 1120,-118.8 1120,-118.8 1008.98,-118.8 1008.98,-118.8"/>
<polygon fill="black" stroke="black" points="1008.98,-115.3 998.98,-118.8 1008.98,-122.3 1008.98,-115.3"/>
</g>
<!-- FeedModule -->
<g id="node6" class="node">
<title>FeedModule</title>
<polygon fill="#8dd3c7" stroke="black" points="1056.27,-84.8 1053.27,-88.8 1032.27,-88.8 1029.27,-84.8 969.73,-84.8 969.73,-48.8 1056.27,-48.8 1056.27,-84.8"/>
<text text-anchor="middle" x="1013" y="-62.6" font-family="Times,serif" font-size="14.00">FeedModule</text>
</g>
<!-- FeedModule&#45;&gt;AppModule -->
<g id="edge6" class="edge">
<title>FeedModule&#45;&gt;AppModule</title>
<path fill="none" stroke="black" d="M984.22,-84.91C984.22,-84.91 984.22,-103.79 984.22,-103.79"/>
<polygon fill="black" stroke="black" points="980.72,-103.79 984.22,-113.79 987.72,-103.79 980.72,-103.79"/>
</g>
<!-- FollowModule -->
<g id="node7" class="node">
<title>FollowModule</title>
<polygon fill="#8dd3c7" stroke="black" points="951.73,-84.8 948.73,-88.8 927.73,-88.8 924.73,-84.8 852.27,-84.8 852.27,-48.8 951.73,-48.8 951.73,-84.8"/>
<text text-anchor="middle" x="902" y="-62.6" font-family="Times,serif" font-size="14.00">FollowModule</text>
</g>
<!-- FollowModule&#45;&gt;AppModule -->
<g id="edge7" class="edge">
<title>FollowModule&#45;&gt;AppModule</title>
<path fill="none" stroke="black" d="M933.39,-84.91C933.39,-84.91 933.39,-103.79 933.39,-103.79"/>
<polygon fill="black" stroke="black" points="929.89,-103.79 933.39,-113.79 936.89,-103.79 929.89,-103.79"/>
</g>
<!-- MemoryModule -->
<g id="node8" class="node">
<title>MemoryModule</title>
<polygon fill="#8dd3c7" stroke="black" points="834.77,-84.8 831.77,-88.8 810.77,-88.8 807.77,-84.8 727.23,-84.8 727.23,-48.8 834.77,-48.8 834.77,-84.8"/>
<text text-anchor="middle" x="781" y="-62.6" font-family="Times,serif" font-size="14.00">MemoryModule</text>
</g>
<!-- MemoryModule&#45;&gt;AppModule -->
<g id="edge8" class="edge">
<title>MemoryModule&#45;&gt;AppModule</title>
<path fill="none" stroke="black" d="M781,-84.99C781,-99.98 781,-118.8 781,-118.8 781,-118.8 905.29,-118.8 905.29,-118.8"/>
<polygon fill="black" stroke="black" points="905.29,-122.3 915.29,-118.8 905.29,-115.3 905.29,-122.3"/>
</g>
<!-- NotificationModule -->
<g id="node9" class="node">
<title>NotificationModule</title>
<polygon fill="#8dd3c7" stroke="black" points="709.7,-84.8 706.7,-88.8 685.7,-88.8 682.7,-84.8 582.3,-84.8 582.3,-48.8 709.7,-48.8 709.7,-84.8"/>
<text text-anchor="middle" x="646" y="-62.6" font-family="Times,serif" font-size="14.00">NotificationModule</text>
</g>
<!-- NotificationModule&#45;&gt;AppModule -->
<g id="edge9" class="edge">
<title>NotificationModule&#45;&gt;AppModule</title>
<path fill="none" stroke="black" d="M646,-84.83C646,-101.2 646,-122.8 646,-122.8 646,-122.8 905.06,-122.8 905.06,-122.8"/>
<polygon fill="black" stroke="black" points="905.06,-126.3 915.06,-122.8 905.06,-119.3 905.06,-126.3"/>
</g>
<!-- PaymentModule -->
<g id="node10" class="node">
<title>PaymentModule</title>
<polygon fill="#8dd3c7" stroke="black" points="564.05,-84.8 561.05,-88.8 540.05,-88.8 537.05,-84.8 455.95,-84.8 455.95,-48.8 564.05,-48.8 564.05,-84.8"/>
<text text-anchor="middle" x="510" y="-62.6" font-family="Times,serif" font-size="14.00">PaymentModule</text>
</g>
<!-- PaymentModule&#45;&gt;AppModule -->
<g id="edge10" class="edge">
<title>PaymentModule&#45;&gt;AppModule</title>
<path fill="none" stroke="black" d="M510,-85.1C510,-103.07 510,-127.8 510,-127.8 510,-127.8 904.95,-127.8 904.95,-127.8"/>
<polygon fill="black" stroke="black" points="904.95,-131.3 914.95,-127.8 904.95,-124.3 904.95,-131.3"/>
</g>
<!-- PostModule -->
<g id="node11" class="node">
<title>PostModule</title>
<polygon fill="#8dd3c7" stroke="black" points="437.68,-84.8 434.68,-88.8 413.68,-88.8 410.68,-84.8 354.32,-84.8 354.32,-48.8 437.68,-48.8 437.68,-84.8"/>
<text text-anchor="middle" x="396" y="-62.6" font-family="Times,serif" font-size="14.00">PostModule</text>
</g>
<!-- PostModule&#45;&gt;AppModule -->
<g id="edge11" class="edge">
<title>PostModule&#45;&gt;AppModule</title>
<path fill="none" stroke="black" d="M396,-84.91C396,-104.14 396,-131.8 396,-131.8 396,-131.8 905.29,-131.8 905.29,-131.8"/>
<polygon fill="black" stroke="black" points="905.29,-135.3 915.29,-131.8 905.29,-128.3 905.29,-135.3"/>
</g>
<!-- ReportModule -->
<g id="node12" class="node">
<title>ReportModule</title>
<polygon fill="#8dd3c7" stroke="black" points="335.66,-84.8 332.66,-88.8 311.66,-88.8 308.66,-84.8 238.34,-84.8 238.34,-48.8 335.66,-48.8 335.66,-84.8"/>
<text text-anchor="middle" x="287" y="-62.6" font-family="Times,serif" font-size="14.00">ReportModule</text>
</g>
<!-- ReportModule&#45;&gt;AppModule -->
<g id="edge12" class="edge">
<title>ReportModule&#45;&gt;AppModule</title>
<path fill="none" stroke="black" d="M287,-84.83C287,-105.57 287,-136.8 287,-136.8 287,-136.8 905.09,-136.8 905.09,-136.8"/>
<polygon fill="black" stroke="black" points="905.09,-140.3 915.09,-136.8 905.09,-133.3 905.09,-140.3"/>
</g>
<!-- TasksModule -->
<g id="node13" class="node">
<title>TasksModule</title>
<polygon fill="#8dd3c7" stroke="black" points="220.21,-84.8 217.21,-88.8 196.21,-88.8 193.21,-84.8 127.79,-84.8 127.79,-48.8 220.21,-48.8 220.21,-84.8"/>
<text text-anchor="middle" x="174" y="-62.6" font-family="Times,serif" font-size="14.00">TasksModule</text>
</g>
<!-- TasksModule&#45;&gt;AppModule -->
<g id="edge13" class="edge">
<title>TasksModule&#45;&gt;AppModule</title>
<path fill="none" stroke="black" d="M174,-85.09C174,-107.01 174,-140.8 174,-140.8 174,-140.8 905.18,-140.8 905.18,-140.8"/>
<polygon fill="black" stroke="black" points="905.18,-144.3 915.18,-140.8 905.18,-137.3 905.18,-144.3"/>
</g>
<!-- UserModule -->
<g id="node14" class="node">
<title>UserModule</title>
<polygon fill="#8dd3c7" stroke="black" points="109.99,-84.8 106.99,-88.8 85.99,-88.8 82.99,-84.8 24.01,-84.8 24.01,-48.8 109.99,-48.8 109.99,-84.8"/>
<text text-anchor="middle" x="67" y="-62.6" font-family="Times,serif" font-size="14.00">UserModule</text>
</g>
<!-- UserModule&#45;&gt;AppModule -->
<g id="edge14" class="edge">
<title>UserModule&#45;&gt;AppModule</title>
<path fill="none" stroke="black" d="M67,-85.12C67,-108.46 67,-145.8 67,-145.8 67,-145.8 905.27,-145.8 905.27,-145.8"/>
<polygon fill="black" stroke="black" points="905.27,-149.3 915.27,-145.8 905.27,-142.3 905.27,-149.3"/>
</g>
<!-- AppService -->
<g id="node16" class="node">
<title>AppService</title>
<ellipse fill="#fdb462" stroke="black" cx="1866" cy="-66.8" rx="56.75" ry="18"/>
<text text-anchor="middle" x="1866" y="-62.6" font-family="Times,serif" font-size="14.00">AppService</text>
</g>
<!-- AppService&#45;&gt;AppModule -->
<g id="edge15" class="edge">
<title>AppService&#45;&gt;AppModule</title>
<path fill="none" stroke="black" d="M1866,-85.12C1866,-108.46 1866,-145.8 1866,-145.8 1866,-145.8 1008.72,-145.8 1008.72,-145.8"/>
<polygon fill="black" stroke="black" points="1008.72,-142.3 998.72,-145.8 1008.72,-149.3 1008.72,-142.3"/>
</g>
<!-- LocalStrategy -->
<g id="node17" class="node">
<title>LocalStrategy</title>
<ellipse fill="#fdb462" stroke="black" cx="1726" cy="-66.8" rx="65.4" ry="18"/>
<text text-anchor="middle" x="1726" y="-62.6" font-family="Times,serif" font-size="14.00">LocalStrategy</text>
</g>
<!-- LocalStrategy&#45;&gt;AppModule -->
<g id="edge16" class="edge">
<title>LocalStrategy&#45;&gt;AppModule</title>
<path fill="none" stroke="black" d="M1726,-85.09C1726,-107.01 1726,-140.8 1726,-140.8 1726,-140.8 1008.89,-140.8 1008.89,-140.8"/>
<polygon fill="black" stroke="black" points="1008.89,-137.3 998.89,-140.8 1008.89,-144.3 1008.89,-137.3"/>
</g>
</g>
</svg>
