<?xml version="1.0" encoding="UTF-8" standalone="no"?>
<!DOCTYPE svg PUBLIC "-//W3C//DTD SVG 1.1//EN"
 "http://www.w3.org/Graphics/SVG/1.1/DTD/svg11.dtd">
<!-- Generated by graphviz version 5.0.0 (20220707.1540)
 -->
<!-- Title: dependencies Pages: 1 -->
<svg width="3103pt" height="326pt"
 viewBox="0.00 0.00 3103.00 325.80" xmlns="http://www.w3.org/2000/svg" xmlns:xlink="http://www.w3.org/1999/xlink">
<g id="graph0" class="graph" transform="scale(1 1) rotate(0) translate(4 321.8)">
<title>dependencies</title>
<polygon fill="white" stroke="transparent" points="-4,4 -4,-321.8 3099,-321.8 3099,4 -4,4"/>
<text text-anchor="middle" x="1547.5" y="-8.2" font-family="sans-serif" font-size="14.00">dependencies</text>
<g id="clust1" class="cluster">
<title>cluster_AnalyticsModule</title>
<polygon fill="none" stroke="black" stroke-dasharray="1,5" points="8,-108.8 8,-244.8 194,-244.8 194,-108.8 8,-108.8"/>
</g>
<g id="clust6" class="cluster">
<title>cluster_AnalyticsModule_providers</title>
<polygon fill="none" stroke="black" points="16,-116.8 16,-168.8 186,-168.8 186,-116.8 16,-116.8"/>
</g>
<g id="clust7" class="cluster">
<title>cluster_AppealsModule</title>
<polygon fill="none" stroke="black" stroke-dasharray="1,5" points="2911,-108.8 2911,-244.8 3087,-244.8 3087,-108.8 2911,-108.8"/>
</g>
<g id="clust12" class="cluster">
<title>cluster_AppealsModule_providers</title>
<polygon fill="none" stroke="black" points="2919,-116.8 2919,-168.8 3079,-168.8 3079,-116.8 2919,-116.8"/>
</g>
<g id="clust13" class="cluster">
<title>cluster_AppModule</title>
<polygon fill="none" stroke="black" stroke-dasharray="1,5" points="794,-108.8 794,-309.8 2003,-309.8 2003,-108.8 794,-108.8"/>
</g>
<g id="clust15" class="cluster">
<title>cluster_AppModule_imports</title>
<polygon fill="none" stroke="black" points="802,-116.8 802,-244.8 1709,-244.8 1709,-116.8 802,-116.8"/>
</g>
<g id="clust18" class="cluster">
<title>cluster_AppModule_providers</title>
<polygon fill="none" stroke="black" points="1717,-116.8 1717,-168.8 1995,-168.8 1995,-116.8 1717,-116.8"/>
</g>
<g id="clust19" class="cluster">
<title>cluster_AuthModule</title>
<polygon fill="none" stroke="black" stroke-dasharray="1,5" points="202,-108.8 202,-176.8 598,-176.8 598,-108.8 202,-108.8"/>
</g>
<g id="clust22" class="cluster">
<title>cluster_AuthModule_exports</title>
<polygon fill="none" stroke="black" points="484,-116.8 484,-168.8 590,-168.8 590,-116.8 484,-116.8"/>
</g>
<g id="clust24" class="cluster">
<title>cluster_AuthModule_providers</title>
<polygon fill="none" stroke="black" points="210,-116.8 210,-168.8 476,-168.8 476,-116.8 210,-116.8"/>
</g>
<g id="clust25" class="cluster">
<title>cluster_BlockModule</title>
<polygon fill="none" stroke="black" stroke-dasharray="1,5" points="668,-32.8 668,-100.8 826,-100.8 826,-32.8 668,-32.8"/>
</g>
<g id="clust30" class="cluster">
<title>cluster_BlockModule_providers</title>
<polygon fill="none" stroke="black" points="676,-40.8 676,-92.8 818,-92.8 818,-40.8 676,-40.8"/>
</g>
<g id="clust31" class="cluster">
<title>cluster_FeedModule</title>
<polygon fill="none" stroke="black" stroke-dasharray="1,5" points="834,-32.8 834,-100.8 984,-100.8 984,-32.8 834,-32.8"/>
</g>
<g id="clust36" class="cluster">
<title>cluster_FeedModule_providers</title>
<polygon fill="none" stroke="black" points="842,-40.8 842,-92.8 976,-92.8 976,-40.8 842,-40.8"/>
</g>
<g id="clust37" class="cluster">
<title>cluster_FollowModule</title>
<polygon fill="none" stroke="black" stroke-dasharray="1,5" points="992,-32.8 992,-100.8 1158,-100.8 1158,-32.8 992,-32.8"/>
</g>
<g id="clust42" class="cluster">
<title>cluster_FollowModule_providers</title>
<polygon fill="none" stroke="black" points="1000,-40.8 1000,-92.8 1150,-92.8 1150,-40.8 1000,-40.8"/>
</g>
<g id="clust43" class="cluster">
<title>cluster_NotificationModule</title>
<polygon fill="none" stroke="black" stroke-dasharray="1,5" points="2011,-184.8 2011,-252.8 2371,-252.8 2371,-184.8 2011,-184.8"/>
</g>
<g id="clust46" class="cluster">
<title>cluster_NotificationModule_exports</title>
<polygon fill="none" stroke="black" points="2217,-192.8 2217,-244.8 2363,-244.8 2363,-192.8 2217,-192.8"/>
</g>
<g id="clust48" class="cluster">
<title>cluster_NotificationModule_providers</title>
<polygon fill="none" stroke="black" points="2019,-192.8 2019,-244.8 2209,-244.8 2209,-192.8 2019,-192.8"/>
</g>
<g id="clust49" class="cluster">
<title>cluster_PaymentModule</title>
<polygon fill="none" stroke="black" stroke-dasharray="1,5" points="606,-108.8 606,-176.8 786,-176.8 786,-108.8 606,-108.8"/>
</g>
<g id="clust54" class="cluster">
<title>cluster_PaymentModule_providers</title>
<polygon fill="none" stroke="black" points="614,-116.8 614,-168.8 778,-168.8 778,-116.8 614,-116.8"/>
</g>
<g id="clust55" class="cluster">
<title>cluster_PostModule</title>
<polygon fill="none" stroke="black" stroke-dasharray="1,5" points="2379,-184.8 2379,-252.8 2635,-252.8 2635,-184.8 2379,-184.8"/>
</g>
<g id="clust58" class="cluster">
<title>cluster_PostModule_exports</title>
<polygon fill="none" stroke="black" points="2525,-192.8 2525,-244.8 2627,-244.8 2627,-192.8 2525,-192.8"/>
</g>
<g id="clust60" class="cluster">
<title>cluster_PostModule_providers</title>
<polygon fill="none" stroke="black" points="2387,-192.8 2387,-244.8 2517,-244.8 2517,-192.8 2387,-192.8"/>
</g>
<g id="clust61" class="cluster">
<title>cluster_ReportModule</title>
<polygon fill="none" stroke="black" stroke-dasharray="1,5" points="1166,-32.8 1166,-100.8 1330,-100.8 1330,-32.8 1166,-32.8"/>
</g>
<g id="clust66" class="cluster">
<title>cluster_ReportModule_providers</title>
<polygon fill="none" stroke="black" points="1174,-40.8 1174,-92.8 1322,-92.8 1322,-40.8 1174,-40.8"/>
</g>
<g id="clust67" class="cluster">
<title>cluster_TasksModule</title>
<polygon fill="none" stroke="black" stroke-dasharray="1,5" points="1338,-32.8 1338,-100.8 1496,-100.8 1496,-32.8 1338,-32.8"/>
</g>
<g id="clust72" class="cluster">
<title>cluster_TasksModule_providers</title>
<polygon fill="none" stroke="black" points="1346,-40.8 1346,-92.8 1488,-92.8 1488,-40.8 1346,-40.8"/>
</g>
<g id="clust73" class="cluster">
<title>cluster_UserModule</title>
<polygon fill="none" stroke="black" stroke-dasharray="1,5" points="2643,-184.8 2643,-252.8 2903,-252.8 2903,-184.8 2643,-184.8"/>
</g>
<g id="clust76" class="cluster">
<title>cluster_UserModule_exports</title>
<polygon fill="none" stroke="black" points="2791,-192.8 2791,-244.8 2895,-244.8 2895,-192.8 2791,-192.8"/>
</g>
<g id="clust78" class="cluster">
<title>cluster_UserModule_providers</title>
<polygon fill="none" stroke="black" points="2651,-192.8 2651,-244.8 2783,-244.8 2783,-192.8 2651,-192.8"/>
</g>
<!-- AnalyticsService -->
<g id="node1" class="node">
<title>AnalyticsService</title>
<ellipse fill="#fdb462" stroke="black" cx="101" cy="-142.8" rx="77.01" ry="18"/>
<text text-anchor="middle" x="101" y="-138.6" font-family="Times,serif" font-size="14.00">AnalyticsService</text>
</g>
<!-- AnalyticsModule -->
<g id="node2" class="node">
<title>AnalyticsModule</title>
<polygon fill="#8dd3c7" stroke="black" points="171.71,-236.8 168.71,-240.8 147.71,-240.8 144.71,-236.8 58.29,-236.8 58.29,-200.8 171.71,-200.8 171.71,-236.8"/>
<text text-anchor="middle" x="115" y="-214.6" font-family="Times,serif" font-size="14.00">AnalyticsModule</text>
</g>
<!-- AnalyticsService&#45;&gt;AnalyticsModule -->
<g id="edge1" class="edge">
<title>AnalyticsService&#45;&gt;AnalyticsModule</title>
<path fill="none" stroke="black" d="M115,-160.81C115,-160.81 115,-190.65 115,-190.65"/>
<polygon fill="black" stroke="black" points="111.5,-190.65 115,-200.65 118.5,-190.65 111.5,-190.65"/>
</g>
<!-- AppModule -->
<g id="node15" class="node">
<title>AppModule</title>
<polygon fill="#8dd3c7" stroke="black" points="1335.66,-301.8 1332.66,-305.8 1311.66,-305.8 1308.66,-301.8 1252.34,-301.8 1252.34,-265.8 1335.66,-265.8 1335.66,-301.8"/>
<text text-anchor="middle" x="1294" y="-279.6" font-family="Times,serif" font-size="14.00">AppModule</text>
</g>
<!-- AnalyticsModule&#45;&gt;AppModule -->
<g id="edge3" class="edge">
<title>AnalyticsModule&#45;&gt;AppModule</title>
<path fill="none" stroke="black" d="M115,-236.89C115,-259.93 115,-296.8 115,-296.8 115,-296.8 1242.04,-296.8 1242.04,-296.8"/>
<polygon fill="black" stroke="black" points="1242.04,-300.3 1252.04,-296.8 1242.04,-293.3 1242.04,-300.3"/>
</g>
<!-- AppealsService -->
<g id="node3" class="node">
<title>AppealsService</title>
<ellipse fill="#fdb462" stroke="black" cx="2999" cy="-142.8" rx="71.78" ry="18"/>
<text text-anchor="middle" x="2999" y="-138.6" font-family="Times,serif" font-size="14.00">AppealsService</text>
</g>
<!-- AppealsModule -->
<g id="node4" class="node">
<title>AppealsModule</title>
<polygon fill="#8dd3c7" stroke="black" points="3037.93,-236.8 3034.93,-240.8 3013.93,-240.8 3010.93,-236.8 2932.07,-236.8 2932.07,-200.8 3037.93,-200.8 3037.93,-236.8"/>
<text text-anchor="middle" x="2985" y="-214.6" font-family="Times,serif" font-size="14.00">AppealsModule</text>
</g>
<!-- AppealsService&#45;&gt;AppealsModule -->
<g id="edge2" class="edge">
<title>AppealsService&#45;&gt;AppealsModule</title>
<path fill="none" stroke="black" d="M2985,-160.81C2985,-160.81 2985,-190.65 2985,-190.65"/>
<polygon fill="black" stroke="black" points="2981.5,-190.65 2985,-200.65 2988.5,-190.65 2981.5,-190.65"/>
</g>
<!-- AppealsModule&#45;&gt;AppModule -->
<g id="edge4" class="edge">
<title>AppealsModule&#45;&gt;AppModule</title>
<path fill="none" stroke="black" d="M2985,-236.89C2985,-259.93 2985,-296.8 2985,-296.8 2985,-296.8 1345.8,-296.8 1345.8,-296.8"/>
<polygon fill="black" stroke="black" points="1345.8,-293.3 1335.8,-296.8 1345.8,-300.3 1345.8,-293.3"/>
</g>
<!-- AuthModule -->
<g id="node5" class="node">
<title>AuthModule</title>
<polygon fill="#8dd3c7" stroke="black" points="988.55,-236.8 985.55,-240.8 964.55,-240.8 961.55,-236.8 901.45,-236.8 901.45,-200.8 988.55,-200.8 988.55,-236.8"/>
<text text-anchor="middle" x="945" y="-214.6" font-family="Times,serif" font-size="14.00">AuthModule</text>
</g>
<!-- AuthModule&#45;&gt;AppModule -->
<g id="edge5" class="edge">
<title>AuthModule&#45;&gt;AppModule</title>
<path fill="none" stroke="black" d="M945,-237.02C945,-257.17 945,-286.8 945,-286.8 945,-286.8 1242.25,-286.8 1242.25,-286.8"/>
<polygon fill="black" stroke="black" points="1242.25,-290.3 1252.25,-286.8 1242.25,-283.3 1242.25,-290.3"/>
</g>
<!-- AuthService  -->
<g id="node18" class="node">
<title>AuthService </title>
<polygon fill="#fb8072" stroke="black" points="581.98,-160.8 492.02,-160.8 492.02,-124.8 581.98,-124.8 581.98,-160.8"/>
<text text-anchor="middle" x="537" y="-138.6" font-family="Times,serif" font-size="14.00">AuthService </text>
</g>
<!-- AuthModule&#45;&gt;AuthService  -->
<g id="edge18" class="edge">
<title>AuthModule&#45;&gt;AuthService </title>
<path fill="none" stroke="black" stroke-dasharray="5,2" d="M901.34,-209.8C796.08,-209.8 537,-209.8 537,-209.8 537,-209.8 537,-171.11 537,-171.11"/>
<polygon fill="black" stroke="black" points="540.5,-171.11 537,-161.11 533.5,-171.11 540.5,-171.11"/>
</g>
<!-- BlockModule -->
<g id="node6" class="node">
<title>BlockModule</title>
<polygon fill="#8dd3c7" stroke="black" points="902.49,-160.8 899.49,-164.8 878.49,-164.8 875.49,-160.8 809.51,-160.8 809.51,-124.8 902.49,-124.8 902.49,-160.8"/>
<text text-anchor="middle" x="856" y="-138.6" font-family="Times,serif" font-size="14.00">BlockModule</text>
</g>
<!-- BlockModule&#45;&gt;AppModule -->
<g id="edge6" class="edge">
<title>BlockModule&#45;&gt;AppModule</title>
<path fill="none" stroke="black" d="M855.36,-161.07C855.36,-200.86 855.36,-291.8 855.36,-291.8 855.36,-291.8 1241.94,-291.8 1241.94,-291.8"/>
<polygon fill="black" stroke="black" points="1241.94,-295.3 1251.94,-291.8 1241.94,-288.3 1241.94,-295.3"/>
</g>
<!-- FeedModule -->
<g id="node7" class="node">
<title>FeedModule</title>
<polygon fill="#8dd3c7" stroke="black" points="1007.27,-160.8 1004.27,-164.8 983.27,-164.8 980.27,-160.8 920.73,-160.8 920.73,-124.8 1007.27,-124.8 1007.27,-160.8"/>
<text text-anchor="middle" x="964" y="-138.6" font-family="Times,serif" font-size="14.00">FeedModule</text>
</g>
<!-- FeedModule&#45;&gt;AppModule -->
<g id="edge7" class="edge">
<title>FeedModule&#45;&gt;AppModule</title>
<path fill="none" stroke="black" d="M998.08,-160.97C998.08,-198.65 998.08,-281.8 998.08,-281.8 998.08,-281.8 1242.23,-281.8 1242.23,-281.8"/>
<polygon fill="black" stroke="black" points="1242.23,-285.3 1252.23,-281.8 1242.23,-278.3 1242.23,-285.3"/>
</g>
<!-- FollowModule -->
<g id="node8" class="node">
<title>FollowModule</title>
<polygon fill="#8dd3c7" stroke="black" points="1124.73,-160.8 1121.73,-164.8 1100.73,-164.8 1097.73,-160.8 1025.27,-160.8 1025.27,-124.8 1124.73,-124.8 1124.73,-160.8"/>
<text text-anchor="middle" x="1075" y="-138.6" font-family="Times,serif" font-size="14.00">FollowModule</text>
</g>
<!-- FollowModule&#45;&gt;AppModule -->
<g id="edge8" class="edge">
<title>FollowModule&#45;&gt;AppModule</title>
<path fill="none" stroke="black" d="M1061.06,-160.87C1061.06,-197.45 1061.06,-276.8 1061.06,-276.8 1061.06,-276.8 1242.09,-276.8 1242.09,-276.8"/>
<polygon fill="black" stroke="black" points="1242.09,-280.3 1252.09,-276.8 1242.09,-273.3 1242.09,-280.3"/>
</g>
<!-- NotificationModule -->
<g id="node9" class="node">
<title>NotificationModule</title>
<polygon fill="#8dd3c7" stroke="black" points="1495.7,-160.8 1492.7,-164.8 1471.7,-164.8 1468.7,-160.8 1368.3,-160.8 1368.3,-124.8 1495.7,-124.8 1495.7,-160.8"/>
<text text-anchor="middle" x="1432" y="-138.6" font-family="Times,serif" font-size="14.00">NotificationModule</text>
</g>
<!-- PaymentModule -->
<g id="node10" class="node">
<title>PaymentModule</title>
<polygon fill="#8dd3c7" stroke="black" points="1205.05,-236.8 1202.05,-240.8 1181.05,-240.8 1178.05,-236.8 1096.95,-236.8 1096.95,-200.8 1205.05,-200.8 1205.05,-236.8"/>
<text text-anchor="middle" x="1151" y="-214.6" font-family="Times,serif" font-size="14.00">PaymentModule</text>
</g>
<!-- NotificationModule&#45;&gt;PaymentModule -->
<g id="edge27" class="edge">
<title>NotificationModule&#45;&gt;PaymentModule</title>
<path fill="none" stroke="black" d="M1419.28,-160.81C1419.28,-183.29 1419.28,-218.8 1419.28,-218.8 1419.28,-218.8 1215.29,-218.8 1215.29,-218.8"/>
<polygon fill="black" stroke="black" points="1215.29,-215.3 1205.29,-218.8 1215.29,-222.3 1215.29,-215.3"/>
</g>
<!-- NotificationModule&#45;&gt;AppModule -->
<g id="edge9" class="edge">
<title>NotificationModule&#45;&gt;AppModule</title>
<path fill="none" stroke="black" d="M1444.72,-161.01C1444.72,-196.57 1444.72,-271.8 1444.72,-271.8 1444.72,-271.8 1345.98,-271.8 1345.98,-271.8"/>
<polygon fill="black" stroke="black" points="1345.98,-268.3 1335.98,-271.8 1345.98,-275.3 1345.98,-268.3"/>
</g>
<!-- NotificationService  -->
<g id="node24" class="node">
<title>NotificationService </title>
<polygon fill="#fb8072" stroke="black" points="2354.63,-236.8 2225.37,-236.8 2225.37,-200.8 2354.63,-200.8 2354.63,-236.8"/>
<text text-anchor="middle" x="2290" y="-214.6" font-family="Times,serif" font-size="14.00">NotificationService </text>
</g>
<!-- NotificationModule&#45;&gt;NotificationService  -->
<g id="edge25" class="edge">
<title>NotificationModule&#45;&gt;NotificationService </title>
<path fill="none" stroke="black" stroke-dasharray="5,2" d="M1393.84,-160.9C1393.84,-171.89 1393.84,-183.8 1393.84,-183.8 1393.84,-183.8 2290,-183.8 2290,-183.8 2290,-183.8 2290,-190.48 2290,-190.48"/>
<polygon fill="black" stroke="black" points="2286.5,-190.48 2290,-200.48 2293.5,-190.48 2286.5,-190.48"/>
</g>
<!-- PaymentModule&#45;&gt;AppModule -->
<g id="edge10" class="edge">
<title>PaymentModule&#45;&gt;AppModule</title>
<path fill="none" stroke="black" d="M1205.43,-227.8C1242.12,-227.8 1283.87,-227.8 1283.87,-227.8 1283.87,-227.8 1283.87,-255.77 1283.87,-255.77"/>
<polygon fill="black" stroke="black" points="1280.37,-255.77 1283.87,-265.77 1287.37,-255.77 1280.37,-255.77"/>
</g>
<!-- PostModule -->
<g id="node11" class="node">
<title>PostModule</title>
<polygon fill="#8dd3c7" stroke="black" points="1596.68,-160.8 1593.68,-164.8 1572.68,-164.8 1569.68,-160.8 1513.32,-160.8 1513.32,-124.8 1596.68,-124.8 1596.68,-160.8"/>
<text text-anchor="middle" x="1555" y="-138.6" font-family="Times,serif" font-size="14.00">PostModule</text>
</g>
<!-- PostModule&#45;&gt;AppModule -->
<g id="edge11" class="edge">
<title>PostModule&#45;&gt;AppModule</title>
<path fill="none" stroke="black" d="M1575.92,-160.87C1575.92,-197.45 1575.92,-276.8 1575.92,-276.8 1575.92,-276.8 1345.9,-276.8 1345.9,-276.8"/>
<polygon fill="black" stroke="black" points="1345.9,-273.3 1335.9,-276.8 1345.9,-280.3 1345.9,-273.3"/>
</g>
<!-- PostService  -->
<g id="node27" class="node">
<title>PostService </title>
<polygon fill="#fb8072" stroke="black" points="2618.6,-236.8 2533.4,-236.8 2533.4,-200.8 2618.6,-200.8 2618.6,-236.8"/>
<text text-anchor="middle" x="2576" y="-214.6" font-family="Times,serif" font-size="14.00">PostService </text>
</g>
<!-- PostModule&#45;&gt;PostService  -->
<g id="edge29" class="edge">
<title>PostModule&#45;&gt;PostService </title>
<path fill="none" stroke="black" stroke-dasharray="5,2" d="M1534.08,-161.04C1534.08,-168.23 1534.08,-174.8 1534.08,-174.8 1534.08,-174.8 2576,-174.8 2576,-174.8 2576,-174.8 2576,-190.65 2576,-190.65"/>
<polygon fill="black" stroke="black" points="2572.5,-190.65 2576,-200.65 2579.5,-190.65 2572.5,-190.65"/>
</g>
<!-- ReportModule -->
<g id="node12" class="node">
<title>ReportModule</title>
<polygon fill="#8dd3c7" stroke="black" points="1239.66,-160.8 1236.66,-164.8 1215.66,-164.8 1212.66,-160.8 1142.34,-160.8 1142.34,-124.8 1239.66,-124.8 1239.66,-160.8"/>
<text text-anchor="middle" x="1191" y="-138.6" font-family="Times,serif" font-size="14.00">ReportModule</text>
</g>
<!-- ReportModule&#45;&gt;AppModule -->
<g id="edge12" class="edge">
<title>ReportModule&#45;&gt;AppModule</title>
<path fill="none" stroke="black" d="M1222.55,-161.01C1222.55,-196.57 1222.55,-271.8 1222.55,-271.8 1222.55,-271.8 1242.02,-271.8 1242.02,-271.8"/>
<polygon fill="black" stroke="black" points="1242.02,-275.3 1252.02,-271.8 1242.02,-268.3 1242.02,-275.3"/>
</g>
<!-- TasksModule -->
<g id="node13" class="node">
<title>TasksModule</title>
<polygon fill="#8dd3c7" stroke="black" points="1350.21,-160.8 1347.21,-164.8 1326.21,-164.8 1323.21,-160.8 1257.79,-160.8 1257.79,-124.8 1350.21,-124.8 1350.21,-160.8"/>
<text text-anchor="middle" x="1304" y="-138.6" font-family="Times,serif" font-size="14.00">TasksModule</text>
</g>
<!-- TasksModule&#45;&gt;AppModule -->
<g id="edge13" class="edge">
<title>TasksModule&#45;&gt;AppModule</title>
<path fill="none" stroke="black" d="M1309.85,-160.94C1309.85,-160.94 1309.85,-255.73 1309.85,-255.73"/>
<polygon fill="black" stroke="black" points="1306.35,-255.72 1309.85,-265.73 1313.35,-255.73 1306.35,-255.72"/>
</g>
<!-- UserModule -->
<g id="node14" class="node">
<title>UserModule</title>
<polygon fill="#8dd3c7" stroke="black" points="1700.99,-160.8 1697.99,-164.8 1676.99,-164.8 1673.99,-160.8 1615.01,-160.8 1615.01,-124.8 1700.99,-124.8 1700.99,-160.8"/>
<text text-anchor="middle" x="1658" y="-138.6" font-family="Times,serif" font-size="14.00">UserModule</text>
</g>
<!-- UserModule&#45;&gt;AuthModule -->
<g id="edge17" class="edge">
<title>UserModule&#45;&gt;AuthModule</title>
<path fill="none" stroke="black" d="M1632.2,-160.84C1632.2,-173.36 1632.2,-187.8 1632.2,-187.8 1632.2,-187.8 943.34,-187.8 943.34,-187.8 943.34,-187.8 943.34,-190.77 943.34,-190.77"/>
<polygon fill="black" stroke="black" points="939.84,-190.77 943.34,-200.77 946.84,-190.77 939.84,-190.77"/>
</g>
<!-- UserModule&#45;&gt;AppModule -->
<g id="edge14" class="edge">
<title>UserModule&#45;&gt;AppModule</title>
<path fill="none" stroke="black" d="M1683.8,-160.97C1683.8,-198.65 1683.8,-281.8 1683.8,-281.8 1683.8,-281.8 1345.71,-281.8 1345.71,-281.8"/>
<polygon fill="black" stroke="black" points="1345.72,-278.3 1335.71,-281.8 1345.71,-285.3 1345.72,-278.3"/>
</g>
<!-- UserService  -->
<g id="node31" class="node">
<title>UserService </title>
<polygon fill="#fb8072" stroke="black" points="2886.91,-236.8 2799.09,-236.8 2799.09,-200.8 2886.91,-200.8 2886.91,-236.8"/>
<text text-anchor="middle" x="2843" y="-214.6" font-family="Times,serif" font-size="14.00">UserService </text>
</g>
<!-- UserModule&#45;&gt;UserService  -->
<g id="edge33" class="edge">
<title>UserModule&#45;&gt;UserService </title>
<path fill="none" stroke="black" stroke-dasharray="5,2" d="M1649.4,-160.92C1649.4,-163.77 1649.4,-165.8 1649.4,-165.8 1649.4,-165.8 2843,-165.8 2843,-165.8 2843,-165.8 2843,-190.56 2843,-190.56"/>
<polygon fill="black" stroke="black" points="2839.5,-190.56 2843,-200.56 2846.5,-190.56 2839.5,-190.56"/>
</g>
<!-- AppService -->
<g id="node16" class="node">
<title>AppService</title>
<ellipse fill="#fdb462" stroke="black" cx="1930" cy="-142.8" rx="56.75" ry="18"/>
<text text-anchor="middle" x="1930" y="-138.6" font-family="Times,serif" font-size="14.00">AppService</text>
</g>
<!-- AppService&#45;&gt;AppModule -->
<g id="edge15" class="edge">
<title>AppService&#45;&gt;AppModule</title>
<path fill="none" stroke="black" d="M1930,-161.07C1930,-200.86 1930,-291.8 1930,-291.8 1930,-291.8 1345.73,-291.8 1345.73,-291.8"/>
<polygon fill="black" stroke="black" points="1345.73,-288.3 1335.73,-291.8 1345.73,-295.3 1345.73,-288.3"/>
</g>
<!-- LocalStrategy -->
<g id="node17" class="node">
<title>LocalStrategy</title>
<ellipse fill="#fdb462" stroke="black" cx="1790" cy="-142.8" rx="65.4" ry="18"/>
<text text-anchor="middle" x="1790" y="-138.6" font-family="Times,serif" font-size="14.00">LocalStrategy</text>
</g>
<!-- LocalStrategy&#45;&gt;AuthModule -->
<g id="edge21" class="edge">
<title>LocalStrategy&#45;&gt;AuthModule</title>
<path fill="none" stroke="black" d="M1768.27,-160.01C1768.27,-174.47 1768.27,-192.8 1768.27,-192.8 1768.27,-192.8 966.06,-192.8 966.06,-192.8 966.06,-192.8 966.06,-193.59 966.06,-193.59"/>
<polygon fill="black" stroke="black" points="962.56,-190.74 966.06,-200.74 969.56,-190.74 962.56,-190.74"/>
</g>
<!-- LocalStrategy&#45;&gt;AppModule -->
<g id="edge16" class="edge">
<title>LocalStrategy&#45;&gt;AppModule</title>
<path fill="none" stroke="black" d="M1811.73,-159.88C1811.73,-198.03 1811.73,-286.8 1811.73,-286.8 1811.73,-286.8 1345.93,-286.8 1345.93,-286.8"/>
<polygon fill="black" stroke="black" points="1345.93,-283.3 1335.93,-286.8 1345.93,-290.3 1345.93,-283.3"/>
</g>
<!-- AuthService -->
<g id="node19" class="node">
<title>AuthService</title>
<ellipse fill="#fdb462" stroke="black" cx="409" cy="-142.8" rx="59.11" ry="18"/>
<text text-anchor="middle" x="409" y="-138.6" font-family="Times,serif" font-size="14.00">AuthService</text>
</g>
<!-- AuthService&#45;&gt;AuthModule -->
<g id="edge19" class="edge">
<title>AuthService&#45;&gt;AuthModule</title>
<path fill="none" stroke="black" d="M409,-160.81C409,-183.29 409,-218.8 409,-218.8 409,-218.8 891.14,-218.8 891.14,-218.8"/>
<polygon fill="black" stroke="black" points="891.14,-222.3 901.14,-218.8 891.14,-215.3 891.14,-222.3"/>
</g>
<!-- JwtStrategy -->
<g id="node20" class="node">
<title>JwtStrategy</title>
<ellipse fill="#fdb462" stroke="black" cx="275" cy="-142.8" rx="56.77" ry="18"/>
<text text-anchor="middle" x="275" y="-138.6" font-family="Times,serif" font-size="14.00">JwtStrategy</text>
</g>
<!-- JwtStrategy&#45;&gt;AuthModule -->
<g id="edge20" class="edge">
<title>JwtStrategy&#45;&gt;AuthModule</title>
<path fill="none" stroke="black" d="M275,-160.83C275,-185.78 275,-227.8 275,-227.8 275,-227.8 891.3,-227.8 891.3,-227.8"/>
<polygon fill="black" stroke="black" points="891.3,-231.3 901.3,-227.8 891.3,-224.3 891.3,-231.3"/>
</g>
<!-- BlockService -->
<g id="node21" class="node">
<title>BlockService</title>
<ellipse fill="#fdb462" stroke="black" cx="747" cy="-66.8" rx="63.12" ry="18"/>
<text text-anchor="middle" x="747" y="-62.6" font-family="Times,serif" font-size="14.00">BlockService</text>
</g>
<!-- BlockService&#45;&gt;BlockModule -->
<g id="edge22" class="edge">
<title>BlockService&#45;&gt;BlockModule</title>
<path fill="none" stroke="black" d="M789.65,-80.39C789.65,-102.25 789.65,-142.8 789.65,-142.8 789.65,-142.8 799.2,-142.8 799.2,-142.8"/>
<polygon fill="black" stroke="black" points="799.2,-146.3 809.2,-142.8 799.2,-139.3 799.2,-146.3"/>
</g>
<!-- FeedService -->
<g id="node22" class="node">
<title>FeedService</title>
<ellipse fill="#fdb462" stroke="black" cx="909" cy="-66.8" rx="58.53" ry="18"/>
<text text-anchor="middle" x="909" y="-62.6" font-family="Times,serif" font-size="14.00">FeedService</text>
</g>
<!-- FeedService&#45;&gt;FeedModule -->
<g id="edge23" class="edge">
<title>FeedService&#45;&gt;FeedModule</title>
<path fill="none" stroke="black" d="M944.19,-81.45C944.19,-81.45 944.19,-114.7 944.19,-114.7"/>
<polygon fill="black" stroke="black" points="940.69,-114.7 944.19,-124.7 947.69,-114.7 940.69,-114.7"/>
</g>
<!-- FollowService -->
<g id="node23" class="node">
<title>FollowService</title>
<ellipse fill="#fdb462" stroke="black" cx="1075" cy="-66.8" rx="67.22" ry="18"/>
<text text-anchor="middle" x="1075" y="-62.6" font-family="Times,serif" font-size="14.00">FollowService</text>
</g>
<!-- FollowService&#45;&gt;FollowModule -->
<g id="edge24" class="edge">
<title>FollowService&#45;&gt;FollowModule</title>
<path fill="none" stroke="black" d="M1075,-84.81C1075,-84.81 1075,-114.65 1075,-114.65"/>
<polygon fill="black" stroke="black" points="1071.5,-114.65 1075,-124.65 1078.5,-114.65 1071.5,-114.65"/>
</g>
<!-- NotificationService -->
<g id="node25" class="node">
<title>NotificationService</title>
<ellipse fill="#fdb462" stroke="black" cx="2114" cy="-218.8" rx="86.81" ry="18"/>
<text text-anchor="middle" x="2114" y="-214.6" font-family="Times,serif" font-size="14.00">NotificationService</text>
</g>
<!-- NotificationService&#45;&gt;NotificationModule -->
<g id="edge26" class="edge">
<title>NotificationService&#45;&gt;NotificationModule</title>
<path fill="none" stroke="black" d="M2038.88,-209.8C1869.05,-209.8 1470.16,-209.8 1470.16,-209.8 1470.16,-209.8 1470.16,-171.11 1470.16,-171.11"/>
<polygon fill="black" stroke="black" points="1473.66,-171.11 1470.16,-161.11 1466.66,-171.11 1473.66,-171.11"/>
</g>
<!-- PaymentService -->
<g id="node26" class="node">
<title>PaymentService</title>
<ellipse fill="#fdb462" stroke="black" cx="696" cy="-142.8" rx="73.58" ry="18"/>
<text text-anchor="middle" x="696" y="-138.6" font-family="Times,serif" font-size="14.00">PaymentService</text>
</g>
<!-- PaymentService&#45;&gt;PaymentModule -->
<g id="edge28" class="edge">
<title>PaymentService&#45;&gt;PaymentModule</title>
<path fill="none" stroke="black" d="M696,-161.08C696,-176.75 696,-196.8 696,-196.8 696,-196.8 1110.67,-196.8 1110.67,-196.8 1110.67,-196.8 1110.67,-197.18 1110.67,-197.18"/>
<polygon fill="black" stroke="black" points="1107.17,-190.63 1110.67,-200.63 1114.17,-190.63 1107.17,-190.63"/>
</g>
<!-- PostService -->
<g id="node28" class="node">
<title>PostService</title>
<ellipse fill="#fdb462" stroke="black" cx="2452" cy="-218.8" rx="56.77" ry="18"/>
<text text-anchor="middle" x="2452" y="-214.6" font-family="Times,serif" font-size="14.00">PostService</text>
</g>
<!-- PostService&#45;&gt;PostModule -->
<g id="edge30" class="edge">
<title>PostService&#45;&gt;PostModule</title>
<path fill="none" stroke="black" d="M2452,-200.67C2452,-190.09 2452,-178.8 2452,-178.8 2452,-178.8 1555,-178.8 1555,-178.8 1555,-178.8 1555,-171.22 1555,-171.22"/>
<polygon fill="black" stroke="black" points="1558.5,-171.22 1555,-161.22 1551.5,-171.22 1558.5,-171.22"/>
</g>
<!-- ReportService -->
<g id="node29" class="node">
<title>ReportService</title>
<ellipse fill="#fdb462" stroke="black" cx="1248" cy="-66.8" rx="66.05" ry="18"/>
<text text-anchor="middle" x="1248" y="-62.6" font-family="Times,serif" font-size="14.00">ReportService</text>
</g>
<!-- ReportService&#45;&gt;ReportModule -->
<g id="edge31" class="edge">
<title>ReportService&#45;&gt;ReportModule</title>
<path fill="none" stroke="black" d="M1210.78,-81.82C1210.78,-81.82 1210.78,-114.6 1210.78,-114.6"/>
<polygon fill="black" stroke="black" points="1207.28,-114.6 1210.78,-124.6 1214.28,-114.6 1207.28,-114.6"/>
</g>
<!-- TasksService -->
<g id="node30" class="node">
<title>TasksService</title>
<ellipse fill="#fdb462" stroke="black" cx="1417" cy="-66.8" rx="62.55" ry="18"/>
<text text-anchor="middle" x="1417" y="-62.6" font-family="Times,serif" font-size="14.00">TasksService</text>
</g>
<!-- TasksService&#45;&gt;TasksModule -->
<g id="edge32" class="edge">
<title>TasksService&#45;&gt;TasksModule</title>
<path fill="none" stroke="black" d="M1361.44,-75.22C1361.44,-95.01 1361.44,-142.8 1361.44,-142.8 1361.44,-142.8 1360.33,-142.8 1360.33,-142.8"/>
<polygon fill="black" stroke="black" points="1360.36,-139.3 1350.36,-142.8 1360.36,-146.3 1360.36,-139.3"/>
</g>
<!-- UserService -->
<g id="node32" class="node">
<title>UserService</title>
<ellipse fill="#fdb462" stroke="black" cx="2717" cy="-218.8" rx="58.46" ry="18"/>
<text text-anchor="middle" x="2717" y="-214.6" font-family="Times,serif" font-size="14.00">UserService</text>
</g>
<!-- UserService&#45;&gt;UserModule -->
<g id="edge34" class="edge">
<title>UserService&#45;&gt;UserModule</title>
<path fill="none" stroke="black" d="M2717,-200.55C2717,-186.62 2717,-169.8 2717,-169.8 2717,-169.8 1666.6,-169.8 1666.6,-169.8 1666.6,-169.8 1666.6,-168.92 1666.6,-168.92"/>
<polygon fill="black" stroke="black" points="1670.1,-170.96 1666.6,-160.96 1663.1,-170.96 1670.1,-170.96"/>
</g>
</g>
</svg>
